<svg width="40" height="40" viewBox="0 0 40 40" fill="none" xmlns="http://www.w3.org/2000/svg">
<path d="M14 18C12.9 18 12 18.9 12 20C12 21.1 12.9 22 14 22C15.1 22 16 21.1 16 20C16 18.9 15.1 18 14 18ZM26 18C24.9 18 24 18.9 24 20C24 21.1 24.9 22 26 22C27.1 22 28 21.1 28 20C28 18.9 27.1 18 26 18ZM20 18C18.9 18 18 18.9 18 20C18 21.1 18.9 22 20 22C21.1 22 22 21.1 22 20C22 18.9 21.1 18 20 18Z" fill="#BDC0C7"/>
<path d="M20 39C9.50659 39 1 30.4934 1 20H-1C-1 31.598 8.40202 41 20 41V39ZM39 20C39 30.4934 30.4934 39 20 39V41C31.598 41 41 31.598 41 20H39ZM20 1C30.4934 1 39 9.50659 39 20H41C41 8.40202 31.598 -1 20 -1V1ZM20 -1C8.40202 -1 -1 8.40202 -1 20H1C1 9.50659 9.50659 1 20 1V-1Z" fill="#303338"/>
</svg>
