<svg width="64" height="64" viewBox="0 0 64 64" fill="none" xmlns="http://www.w3.org/2000/svg">
<circle cx="32" cy="32" r="32" fill="url(#paint0_radial)"/>
<g filter="url(#filter0_d)">
<path d="M15.7082 15.7082C22.5971 8.81932 32.7631 7.20478 41.1881 10.8646L36.7915 15.2611C30.9113 13.5836 24.3212 15.0601 19.6906 19.6906C13.5703 25.8109 12.96 35.3547 17.8597 42.1578L24.3972 35.6204L28.3796 39.6028L17.8199 50.1624C17.0878 49.5894 16.3823 48.9658 15.7082 48.2917C6.71054 39.294 6.71054 24.7059 15.7082 15.7082Z" fill="white"/>
<path d="M22.8119 53.1353C31.2368 56.7951 41.4028 55.1806 48.2917 48.2917C57.2894 39.294 57.2894 24.7059 48.2917 15.7082C47.6176 15.0341 46.9122 14.4106 46.18 13.8375L35.6203 24.3971L39.6028 28.3796L46.1403 21.8421C51.0399 28.6452 50.4296 38.189 44.3093 44.3093C39.6788 48.9398 33.0886 50.4163 27.2084 48.7388L22.8119 53.1353Z" fill="white"/>
<path d="M35.9824 32L32 28.0175L28.0176 32L32 35.9824L35.9824 32Z" fill="white"/>
<path d="M24.3972 20.4147L28.3796 24.3971L24.3972 28.3796L20.4147 24.3971L24.3972 20.4147Z" fill="white"/>
<path d="M43.5852 39.6028L39.6028 35.6203L35.6203 39.6028L39.6028 43.5852L43.5852 39.6028Z" fill="white"/>
</g>
<defs>
<filter id="filter0_d" x="6.95996" y="6.95996" width="50.08" height="50.08" filterUnits="userSpaceOnUse" color-interpolation-filters="sRGB">
<feFlood flood-opacity="0" result="BackgroundImageFix"/>
<feColorMatrix in="SourceAlpha" type="matrix" values="0 0 0 0 0 0 0 0 0 0 0 0 0 0 0 0 0 0 127 0"/>
<feOffset/>
<feGaussianBlur stdDeviation="1"/>
<feColorMatrix type="matrix" values="0 0 0 0 0 0 0 0 0 0 0 0 0 0 0 0 0 0 0.25 0"/>
<feBlend mode="normal" in2="BackgroundImageFix" result="effect1_dropShadow"/>
<feBlend mode="normal" in="SourceGraphic" in2="effect1_dropShadow" result="shape"/>
</filter>
<radialGradient id="paint0_radial" cx="0" cy="0" r="1" gradientUnits="userSpaceOnUse" gradientTransform="translate(32 32) rotate(90) scale(32)">
<stop stop-color="#304FFE"/>
<stop offset="1" stop-color="#3D5AFE"/>
</radialGradient>
</defs>
</svg>
