<svg width="24" height="24" viewBox="0 0 24 24" fill="none" xmlns="http://www.w3.org/2000/svg">
<path fill-rule="evenodd" clip-rule="evenodd" d="M12 24C18.6274 24 24 18.6274 24 12C24 5.37258 18.6274 0 12 0C5.37258 0 0 5.37258 0 12C0 18.6274 5.37258 24 12 24ZM5.8906 5.8906C8.47393 3.30726 12.2862 2.70181 15.4455 4.07423L13.7968 5.72292C11.5918 5.09387 9.12045 5.64756 7.38401 7.384C5.08889 9.67912 4.86002 13.258 6.69739 15.8092L9.14895 13.3576L10.6424 14.8511L6.68248 18.8109C6.40793 18.596 6.14338 18.3622 5.8906 18.1094C2.51647 14.7353 2.51647 9.26473 5.8906 5.8906ZM8.55446 19.9258C11.7138 21.2982 15.5261 20.6927 18.1094 18.1094C21.4835 14.7353 21.4835 9.26473 18.1094 5.8906C17.8566 5.63782 17.5921 5.40397 17.3175 5.18907L13.3576 9.14894L14.8511 10.6424L17.3026 8.19079C19.14 10.742 18.9111 14.3209 16.616 16.616C14.8796 18.3524 12.4082 18.9061 10.2032 18.2771L8.55446 19.9258ZM12 10.5066L13.4934 12L12 13.4934L10.5066 12L12 10.5066ZM9.14895 7.65553L10.6424 9.14894L9.14895 10.6424L7.65554 9.14894L9.14895 7.65553ZM14.8511 13.3576L16.3445 14.8511L14.8511 16.3445L13.3576 14.8511L14.8511 13.3576Z" fill="url(#paint0_radial)"/>
<defs>
<radialGradient id="paint0_radial" cx="0" cy="0" r="1" gradientUnits="userSpaceOnUse" gradientTransform="translate(12 12) rotate(90) scale(12)">
<stop stop-color="#304FFE"/>
<stop offset="1" stop-color="#3D5AFE"/>
</radialGradient>
</defs>
</svg>
