<svg width="28" height="28" viewBox="0 0 28 28" fill="none" xmlns="http://www.w3.org/2000/svg">
<path fill-rule="evenodd" clip-rule="evenodd" d="M14 28C21.732 28 28 21.732 28 14C28 6.26801 21.732 0 14 0C6.26801 0 0 6.26801 0 14C0 21.732 6.26801 28 14 28ZM6.87229 6.87229C9.88618 3.85839 14.3338 3.15203 18.0197 4.75319L16.0962 6.67666C13.5236 5.94277 10.6404 6.58874 8.6146 8.61459C5.93696 11.2922 5.66994 15.4676 7.81355 18.444L10.6737 15.5838L12.416 17.3262L7.79615 21.946C7.47584 21.6953 7.1672 21.4225 6.87229 21.1276C2.9358 17.1911 2.9358 10.8088 6.87229 6.87229ZM9.98013 23.2467C13.6661 24.8478 18.1137 24.1415 21.1276 21.1276C25.064 17.1911 25.064 10.8088 21.1276 6.87229C20.8326 6.57737 20.524 6.30456 20.2037 6.05383L15.5838 10.6737L17.3262 12.416L20.1863 9.55585C22.3299 12.5322 22.0629 16.7076 19.3853 19.3852C17.3594 21.4111 14.4762 22.0571 11.9036 21.3232L9.98013 23.2467ZM13.9999 12.2576L15.7422 13.9999L13.9999 15.7422L12.2576 13.9999L13.9999 12.2576ZM10.6737 8.93138L12.416 10.6737L10.6737 12.416L8.93139 10.6737L10.6737 8.93138ZM17.3262 15.5838L19.0685 17.3262L17.3262 19.0685L15.5838 17.3262L17.3262 15.5838Z" fill="#212121"/>
</svg>
