<svg width="92" height="28" viewBox="0 0 92 28" fill="none" xmlns="http://www.w3.org/2000/svg">
<circle cx="14" cy="14" r="14" fill="url(#paint0_radial)"/>
<g filter="url(#filter0_d)">
<path d="M6.87238 6.87238C9.88627 3.85848 14.3339 3.15212 18.0198 4.75328L16.0963 6.67676C13.5237 5.94286 10.6405 6.58884 8.61469 8.61468C5.93705 11.2923 5.67004 15.4677 7.81364 18.4441L10.6738 15.5839L12.4161 17.3262L7.79624 21.9461C7.47593 21.6954 7.16729 21.4226 6.87238 21.1276C2.93589 17.1912 2.93589 10.8089 6.87238 6.87238Z" fill="white"/>
<path d="M9.98022 23.2467C13.6661 24.8479 18.1138 24.1415 21.1276 21.1276C25.0641 17.1912 25.0641 10.8089 21.1276 6.87238C20.8327 6.57747 20.5241 6.30465 20.2038 6.05392L15.5839 10.6738L17.3262 12.4161L20.1864 9.55594C22.33 12.5323 22.063 16.7077 19.3853 19.3853C17.3595 21.4112 14.4763 22.0572 11.9037 21.3233L9.98022 23.2467Z" fill="white"/>
<path d="M15.7423 14L14 12.2577L12.2577 14L14 15.7423L15.7423 14Z" fill="white"/>
<path d="M10.6738 8.93147L12.4161 10.6738L10.6738 12.4161L8.93148 10.6738L10.6738 8.93147Z" fill="white"/>
<path d="M19.0686 17.3262L17.3262 15.5839L15.5839 17.3262L17.3262 19.0686L19.0686 17.3262Z" fill="white"/>
</g>
<g filter="url(#filter1_i)">
<path fill-rule="evenodd" clip-rule="evenodd" d="M41.3672 19.5V8.22656H45.8047C49.1562 8.22656 51.0938 10.25 51.0938 13.7812C51.0938 17.4453 49.1797 19.5 45.8047 19.5H41.3672ZM45.4297 10.2422H43.7266V17.4844H45.4297C47.5156 17.4844 48.6875 16.2031 48.6875 13.8203C48.6875 11.5391 47.4766 10.2422 45.4297 10.2422ZM54.7344 19.5H52.1875L55.7891 13.8203L52.2109 8.22656H54.9844L57.3359 12.1719H57.4766L59.8516 8.22656H62.4922L58.7812 13.8594L62.4375 19.5H59.75L57.3281 15.6797H57.1875L54.7344 19.5Z" fill="#37474F"/>
</g>
<g filter="url(#filter2_i)">
<path fill-rule="evenodd" clip-rule="evenodd" d="M70.1094 18.1484C69.625 19.0859 68.6406 19.6406 67.4531 19.6406C65.2891 19.6406 63.9375 17.9375 63.9375 15.2188C63.9375 12.5156 65.2969 10.8125 67.4531 10.8125C68.625 10.8125 69.5938 11.375 70.0469 12.3125H70.1797V7.64844H72.1172V19.5H70.2422V18.1484H70.1094ZM70.2031 15.2266C70.2031 13.5234 69.3828 12.4609 68.0547 12.4609C66.7344 12.4609 65.9219 13.5078 65.9219 15.2266C65.9219 16.9531 66.7266 17.9922 68.0547 17.9922C69.3906 17.9922 70.2031 16.9453 70.2031 15.2266ZM77.4844 18.1172C76.625 18.1172 76.0078 17.6875 76.0078 16.9688C76.0078 16.2734 76.5156 15.8828 77.6016 15.8125L79.5312 15.6875V16.3672C79.5312 17.3594 78.6562 18.1172 77.4844 18.1172ZM76.9141 19.6406C78.0312 19.6406 78.9688 19.1562 79.4453 18.3281H79.5781V19.5H81.4453V13.6641C81.4453 11.8516 80.2109 10.7812 78.0156 10.7812C75.9844 10.7812 74.5703 11.7422 74.4141 13.25H76.2422C76.4219 12.6719 77.0312 12.3594 77.9219 12.3594C78.9688 12.3594 79.5312 12.8281 79.5312 13.6641V14.3828L77.3281 14.5156C75.25 14.6406 74.0859 15.5312 74.0859 17.0781C74.0859 18.6406 75.2656 19.6406 76.9141 19.6406ZM87.4688 19.6719C90.0234 19.6719 91.5781 18 91.5781 15.2266C91.5781 12.4609 90.0156 10.7812 87.4688 10.7812C84.9297 10.7812 83.3594 12.4688 83.3594 15.2266C83.3594 18 84.9062 19.6719 87.4688 19.6719ZM87.4688 18.0469C86.1172 18.0469 85.3438 17.0156 85.3438 15.2266C85.3438 13.4453 86.1172 12.4062 87.4688 12.4062C88.8125 12.4062 89.5859 13.4453 89.5859 15.2266C89.5859 17.0156 88.8203 18.0469 87.4688 18.0469Z" fill="#5F6C72"/>
</g>
<defs>
<filter id="filter0_d" x="1.92001" y="1.92001" width="24.16" height="24.16" filterUnits="userSpaceOnUse" color-interpolation-filters="sRGB">
<feFlood flood-opacity="0" result="BackgroundImageFix"/>
<feColorMatrix in="SourceAlpha" type="matrix" values="0 0 0 0 0 0 0 0 0 0 0 0 0 0 0 0 0 0 127 0"/>
<feOffset/>
<feGaussianBlur stdDeviation="1"/>
<feColorMatrix type="matrix" values="0 0 0 0 0 0 0 0 0 0 0 0 0 0 0 0 0 0 0.25 0"/>
<feBlend mode="normal" in2="BackgroundImageFix" result="effect1_dropShadow"/>
<feBlend mode="normal" in="SourceGraphic" in2="effect1_dropShadow" result="shape"/>
</filter>
<filter id="filter1_i" x="41.3672" y="8.22656" width="21.125" height="11.2734" filterUnits="userSpaceOnUse" color-interpolation-filters="sRGB">
<feFlood flood-opacity="0" result="BackgroundImageFix"/>
<feBlend mode="normal" in="SourceGraphic" in2="BackgroundImageFix" result="shape"/>
<feColorMatrix in="SourceAlpha" type="matrix" values="0 0 0 0 0 0 0 0 0 0 0 0 0 0 0 0 0 0 127 0" result="hardAlpha"/>
<feOffset/>
<feGaussianBlur stdDeviation="0.5"/>
<feComposite in2="hardAlpha" operator="arithmetic" k2="-1" k3="1"/>
<feColorMatrix type="matrix" values="0 0 0 0 0 0 0 0 0 0 0 0 0 0 0 0 0 0 0.15 0"/>
<feBlend mode="normal" in2="shape" result="effect1_innerShadow"/>
</filter>
<filter id="filter2_i" x="63.9375" y="7.64844" width="27.6406" height="12.0234" filterUnits="userSpaceOnUse" color-interpolation-filters="sRGB">
<feFlood flood-opacity="0" result="BackgroundImageFix"/>
<feBlend mode="normal" in="SourceGraphic" in2="BackgroundImageFix" result="shape"/>
<feColorMatrix in="SourceAlpha" type="matrix" values="0 0 0 0 0 0 0 0 0 0 0 0 0 0 0 0 0 0 127 0" result="hardAlpha"/>
<feOffset/>
<feGaussianBlur stdDeviation="0.5"/>
<feComposite in2="hardAlpha" operator="arithmetic" k2="-1" k3="1"/>
<feColorMatrix type="matrix" values="0 0 0 0 0 0 0 0 0 0 0 0 0 0 0 0 0 0 0.15 0"/>
<feBlend mode="normal" in2="shape" result="effect1_innerShadow"/>
</filter>
<radialGradient id="paint0_radial" cx="0" cy="0" r="1" gradientUnits="userSpaceOnUse" gradientTransform="translate(14 14) rotate(90) scale(14)">
<stop stop-color="#304FFE"/>
<stop offset="1" stop-color="#3D5AFE"/>
</radialGradient>
</defs>
</svg>
