<svg width="70" height="70" viewBox="0 0 70 70" fill="none" xmlns="http://www.w3.org/2000/svg">
<circle cx="35" cy="35" r="35" fill="#F8F8F8"/>
<path fill-rule="evenodd" clip-rule="evenodd" d="M37 27C37 28.1046 36.1046 29 35 29C33.8954 29 33 28.1046 33 27C33 25.8954 33.8954 25 35 25C36.1046 25 37 25.8954 37 27ZM37 43C37 44.1046 36.1046 45 35 45C33.8954 45 33 44.1046 33 43C33 41.8954 33.8954 41 35 41C36.1046 41 37 41.8954 37 43ZM27.9288 42.0711C28.7099 42.8521 29.9762 42.8521 30.7572 42.0711C31.5383 41.29 31.5383 40.0237 30.7572 39.2426C29.9762 38.4616 28.7099 38.4616 27.9288 39.2426C27.1478 40.0237 27.1478 41.29 27.9288 42.0711ZM42.071 30.7573C41.2899 31.5384 40.0236 31.5384 39.2425 30.7573C38.4615 29.9763 38.4615 28.71 39.2425 27.9289C40.0236 27.1479 41.2899 27.1479 42.071 27.9289C42.852 28.71 42.852 29.9763 42.071 30.7573ZM25 35C25 36.1046 25.8954 37 27 37C28.1046 37 29 36.1046 29 35C29 33.8954 28.1046 33 27 33C25.8954 33 25 33.8954 25 35ZM43 37C41.8954 37 41 36.1046 41 35C41 33.8954 41.8954 33 43 33C44.1046 33 45 33.8954 45 35C45 36.1046 44.1046 37 43 37ZM27.929 27.9289C27.1479 28.71 27.1479 29.9763 27.929 30.7574C28.71 31.5384 29.9764 31.5384 30.7574 30.7574C31.5385 29.9763 31.5385 28.71 30.7574 27.9289C29.9764 27.1479 28.71 27.1479 27.929 27.9289ZM39.2427 42.0711C38.4617 41.29 38.4617 40.0237 39.2427 39.2426C40.0238 38.4616 41.2901 38.4616 42.0711 39.2426C42.8522 40.0237 42.8522 41.29 42.0711 42.0711C41.2901 42.8521 40.0238 42.8521 39.2427 42.0711ZM35 37C36.1046 37 37 36.1046 37 35C37 33.8954 36.1046 33 35 33C33.8954 33 33 33.8954 33 35C33 36.1046 33.8954 37 35 37Z" fill="#333333"/>
</svg>
