<svg width="20" height="20" viewBox="0 0 20 20" fill="#000000" xmlns="http://www.w3.org/2000/svg">
<path fill-rule="evenodd" clip-rule="evenodd" d="M4.05478 18.0485C5.6411 19.2141 7.28331 19.8001 9.49544 19.9898C9.91627 20.0259 10.9094 19.963 11.6047 19.8563C15.1384 19.3139 18.2257 16.7739 19.4017 13.4413C21.1145 8.58729 19.0462 3.3463 14.5208 1.0736C12.6594 0.138815 10.4342 -0.20841 8.4248 0.122393C3.50226 0.932796 0 5.03719 0 9.99564C0 13.2156 1.48125 16.1574 4.05478 18.0485ZM11.6477 15.5167C12.3007 15.3636 12.7735 15.1994 13.2378 14.9645C14.683 14.2336 15.5877 13.0201 15.5877 11.8128C15.5877 11.4478 15.5955 11.4308 15.8997 11.1363C16.1412 10.9026 16.2357 10.7516 16.3173 10.4689C16.4146 10.1321 16.4149 10.0761 16.3213 9.75424C16.0588 8.85135 15.12 8.44459 14.2798 8.86971L13.955 9.03402L13.6204 8.8281C12.9767 8.43208 11.832 8.04422 11.0939 7.97208C10.8917 7.95231 10.6367 7.9227 10.5274 7.90626L10.3285 7.87639L10.4139 7.44888C10.4609 7.21375 10.5587 6.7497 10.6314 6.41766C10.7041 6.08562 10.7951 5.63522 10.8337 5.41677C10.8895 5.10103 10.9276 5.01959 11.0194 5.01959C11.0829 5.01959 11.5372 5.10538 12.029 5.21024C12.5208 5.31509 12.9332 5.40088 12.9456 5.40088C12.958 5.40088 12.9857 5.49481 13.0072 5.6096C13.0617 5.90004 13.2032 6.08039 13.4923 6.22786C14.186 6.58179 14.9669 6.11022 14.9669 5.33733C14.9669 4.37976 13.7862 3.96156 13.1861 4.7066C13.0702 4.85059 13.012 4.87698 12.9002 4.83632C12.823 4.80825 12.2925 4.68964 11.7214 4.57276C10.965 4.41795 10.6547 4.37807 10.5789 4.4259C10.575 4.42833 10.5713 4.43062 10.5677 4.43283C10.5573 4.43929 10.5479 4.44507 10.5392 4.45171C10.4643 4.50894 10.4384 4.63035 10.1899 5.79673C10.18 5.84316 10.1697 5.89124 10.1591 5.94104C9.77975 7.72053 9.75683 7.82131 9.72414 7.85401C9.70685 7.87129 9.43252 7.91235 9.11452 7.94525C8.14973 8.04507 7.08947 8.38572 6.37467 8.82554L6.04416 9.0289L5.71958 8.86715C4.87229 8.44493 3.93187 8.85186 3.66954 9.75424C3.57597 10.0761 3.57629 10.1321 3.67355 10.4689C3.7552 10.7516 3.84968 10.9026 4.09112 11.1363C4.39533 11.4308 4.40317 11.4478 4.40317 11.8128C4.40317 13.4805 6.11722 15.0721 8.40672 15.5303C9.16521 15.682 9.21667 15.6859 10.1861 15.6641C10.8196 15.6499 11.2763 15.6038 11.6477 15.5167ZM11.2618 11.3574C11.3336 11.6239 11.5032 11.8158 11.8066 11.9735C12.0644 12.1076 12.3022 12.0988 12.6059 11.9438C12.9437 11.7715 13.1087 11.4905 13.1091 11.0873C13.1094 10.6336 12.8986 10.3399 12.4704 10.1977C12.1657 10.0965 12.1293 10.0965 11.8641 10.1977C11.379 10.383 11.129 10.8643 11.2618 11.3574ZM7.3714 11.9443C7.04402 11.7666 6.88213 11.4833 6.88184 11.0873C6.88152 10.6336 7.0923 10.3399 7.5205 10.1977C7.82524 10.0965 7.86163 10.0965 8.12683 10.1977C8.84048 10.4703 8.98653 11.3606 8.39562 11.8364C8.08763 12.0844 7.70413 12.1248 7.3714 11.9443ZM8.97497 14.3056C8.44915 14.1872 7.85448 13.9231 7.68023 13.7305C7.54129 13.577 7.60069 13.3444 7.77885 13.3444C7.84825 13.3444 8.01076 13.4166 8.13997 13.5048C9.01249 14.1004 10.9814 14.0982 11.8568 13.5007C12.1388 13.3083 12.3695 13.3136 12.398 13.5132C12.4114 13.6071 12.3514 13.7006 12.2073 13.8105C11.5073 14.3444 10.1029 14.5595 8.97497 14.3056Z" fill="#BDBDBD"/>
</svg>
