<svg width="24" height="24" viewBox="0 0 24 24" fill="none" xmlns="http://www.w3.org/2000/svg">
<path d="M20.75 12.0001C20.75 11.5859 20.4142 11.2501 20 11.2501C19.5858 11.2501 19.25 11.5859 19.25 12.0001H20.75ZM12 19.2501C11.5858 19.2501 11.25 19.5859 11.25 20.0001C11.25 20.4143 11.5858 20.7501 12 20.7501V19.2501ZM19.25 12.0001C19.25 16.0042 16.0041 19.2501 12 19.2501V20.7501C16.8325 20.7501 20.75 16.8326 20.75 12.0001H19.25Z" fill="black"/>
<path d="M3.25 12C3.25 12.4142 3.58579 12.75 4 12.75C4.41421 12.75 4.75 12.4142 4.75 12H3.25ZM12 4.75C12.4142 4.75 12.75 4.41421 12.75 4C12.75 3.58579 12.4142 3.25 12 3.25V4.75ZM4.75 12C4.75 7.99594 7.99594 4.75 12 4.75V3.25C7.16751 3.25 3.25 7.16751 3.25 12H4.75Z" fill="black"/>
<path d="M16.75 12C16.75 11.5858 16.4142 11.25 16 11.25C15.5858 11.25 15.25 11.5858 15.25 12H16.75ZM12 15.25C11.5858 15.25 11.25 15.5858 11.25 16C11.25 16.4142 11.5858 16.75 12 16.75V15.25ZM7.25 12C7.25 12.4142 7.58579 12.75 8 12.75C8.41421 12.75 8.75 12.4142 8.75 12H7.25ZM12 8.75C12.4142 8.75 12.75 8.41421 12.75 8C12.75 7.58579 12.4142 7.25 12 7.25V8.75ZM15.25 12C15.25 13.7949 13.7949 15.25 12 15.25V16.75C14.6234 16.75 16.75 14.6234 16.75 12H15.25ZM8.75 12C8.75 10.2051 10.2051 8.75 12 8.75V7.25C9.37665 7.25 7.25 9.37665 7.25 12H8.75Z" fill="black"/>
</svg>
