<svg width="70" height="70" viewBox="0 0 70 70" fill="none" xmlns="http://www.w3.org/2000/svg">
<circle cx="35" cy="35" r="35" fill="#F8F8F8"/>
<path d="M21.8995 32.5791L21.5 32.8791V33.3787V36.6213V37.1209L21.8995 37.4209L25.3995 40.0496L26 40.5006L26.6005 40.0496L30.1005 37.4209L30.5 37.1209V36.6213V33.3787V32.8791L30.1005 32.5791L26.6005 29.9504L26 29.4994L25.3995 29.9504L21.8995 32.5791Z" stroke="#333333" stroke-width="2"/>
<path d="M30.8995 32.5791L30.5 32.8791V33.3787V36.6213V37.1209L30.8995 37.4209L34.3995 40.0496L35 40.5006L35.6005 40.0496L39.1005 37.4209L39.5 37.1209V36.6213V33.3787V32.8791L39.1005 32.5791L35.6005 29.9504L35 29.4994L34.3995 29.9504L30.8995 32.5791Z" stroke="#333333" stroke-width="2"/>
<path d="M35.3995 24.959L35 25.259V25.7586V29.0012V29.5008L35.3995 29.8008L38.8995 32.4295L39.5 32.8805L40.1005 32.4295L43.6005 29.8008L44 29.5008V29.0012V25.7586V25.259L43.6005 24.959L40.1005 22.3303L39.5 21.8793L38.8995 22.3303L35.3995 24.959Z" fill="#333333" stroke="#333333" stroke-width="2"/>
<path d="M26.3995 24.959L26 25.259V25.7586V29.0012V29.5008L26.3995 29.8008L29.8995 32.4295L30.5 32.8805L31.1005 32.4295L34.6005 29.8008L35 29.5008V29.0012V25.7586V25.259L34.6005 24.959L31.1005 22.3303L30.5 21.8793L29.8995 22.3303L26.3995 24.959Z" stroke="#333333" stroke-width="2"/>
<path d="M35.3995 40.1992L35 40.4992V40.9988V44.2414V44.741L35.3995 45.041L38.8995 47.6697L39.5 48.1207L40.1005 47.6697L43.6005 45.041L44 44.741V44.2414V40.9988V40.4992L43.6005 40.1992L40.1005 37.5705L39.5 37.1195L38.8995 37.5705L35.3995 40.1992Z" stroke="#333333" stroke-width="2"/>
<path d="M26.3995 40.1992L26 40.4992V40.9988V44.2414V44.741L26.3995 45.041L29.8995 47.6697L30.5 48.1207L31.1005 47.6697L34.6005 45.041L35 44.741V44.2414V40.9988V40.4992L34.6005 40.1992L31.1005 37.5705L30.5 37.1195L29.8995 37.5705L26.3995 40.1992Z" fill="#333333" stroke="#333333" stroke-width="2"/>
<path d="M39.8995 32.5791L39.5 32.8791V33.3787V36.6213V37.1209L39.8995 37.4209L43.3995 40.0496L44 40.5006L44.6005 40.0496L48.1005 37.4209L48.5 37.1209V36.6213V33.3787V32.8791L48.1005 32.5791L44.6005 29.9504L44 29.4994L43.3995 29.9504L39.8995 32.5791Z" stroke="#333333" stroke-width="2"/>
</svg>
