<svg width="70" height="70" viewBox="0 0 70 70" fill="none" xmlns="http://www.w3.org/2000/svg">
<circle cx="35" cy="35" r="35" fill="#F8F8F8"/>
<path fill-rule="evenodd" clip-rule="evenodd" d="M27 29C25.8954 29 25 28.1046 25 27C25 25.8954 25.8954 25 27 25C28.1046 25 29 25.8954 29 27C29 28.1046 28.1046 29 27 29ZM25 35C25 36.1046 25.8954 37 27 37C28.1046 37 29 36.1046 29 35C29 33.8954 28.1046 33 27 33C25.8954 33 25 33.8954 25 35ZM25 43C25 44.1046 25.8954 45 27 45C28.1046 45 29 44.1046 29 43C29 41.8954 28.1046 41 27 41C25.8954 41 25 41.8954 25 43ZM41 35C41 36.1046 41.8954 37 43 37C44.1046 37 45 36.1046 45 35C45 33.8954 44.1046 33 43 33C41.8954 33 41 33.8954 41 35ZM43 29C41.8954 29 41 28.1046 41 27C41 25.8954 41.8954 25 43 25C44.1046 25 45 25.8954 45 27C45 28.1046 44.1046 29 43 29ZM41 43C41 44.1046 41.8954 45 43 45C44.1046 45 45 44.1046 45 43C45 41.8954 44.1046 41 43 41C41.8954 41 41 41.8954 41 43ZM37 43C37 44.1046 36.1046 45 35 45C33.8954 45 33 44.1046 33 43C33 41.8954 33.8954 41 35 41C36.1046 41 37 41.8954 37 43ZM35 29C36.1046 29 37 28.1046 37 27C37 25.8954 36.1046 25 35 25C33.8954 25 33 25.8954 33 27C33 28.1046 33.8954 29 35 29Z" fill="#333333"/>
<path d="M27 43L43 27" stroke="#333333" stroke-width="2" stroke-linecap="round"/>
</svg>
