<svg width="20" height="20" viewBox="0 0 20 20" fill="none" xmlns="http://www.w3.org/2000/svg">
<path fill-rule="evenodd" clip-rule="evenodd" d="M10 20C4.47713 20 0 15.5229 0 9.99998C0 4.47709 4.47713 -4.17978e-05 10 -4.17978e-05C15.5229 -4.17978e-05 20 4.47709 20 9.99998C20 15.5229 15.5229 20 10 20ZM10.0433 12.8195C10.8823 13.3988 11.7855 14.0398 12.1751 14.3749C12.3708 14.5433 12.5346 14.5707 12.6695 14.5656C13.0394 14.5518 13.1426 14.1454 13.1426 14.1454C13.1426 14.1454 14.8681 7.20152 14.9257 6.27101C14.9279 6.23468 14.9305 6.20361 14.9328 6.1754C14.9363 6.13287 14.9392 6.09685 14.9397 6.05915C14.9408 5.9722 14.9327 5.88483 14.9186 5.84372C14.8797 5.73084 14.8336 5.69991 14.7614 5.67254C14.6034 5.61271 14.336 5.70271 14.336 5.70271C14.336 5.70271 4.86803 9.10585 4.32718 9.48272C4.21066 9.56399 4.17176 9.61102 4.15244 9.66636C4.05888 9.93475 4.35015 10.053 4.35015 10.053L6.79041 10.8481L6.78973 10.8481C6.78973 10.8481 6.79883 10.8494 6.8123 10.8505L7.95549 14.0147C7.95549 14.0147 8.06234 14.236 8.19183 14.3029C8.27463 14.3578 8.43882 14.3153 8.76053 13.9936C9.28287 13.4712 9.78945 13.033 10.0433 12.8195Z" fill="#5CACDD"/>
</svg>
