<svg width="20" height="20" viewBox="0 0 20 20" fill="none" xmlns="http://www.w3.org/2000/svg">
<path fill-rule="evenodd" clip-rule="evenodd" d="M10 20.0001C4.47713 20.0001 0 15.523 0 10.0001C0 4.47721 4.47713 8.02726e-05 10 8.02726e-05C15.5229 8.02726e-05 20 4.47721 20 10.0001C20 15.523 15.5229 20.0001 10 20.0001ZM10.0433 12.8197C10.8823 13.399 11.7855 14.0399 12.1751 14.3751C12.3708 14.5434 12.5346 14.5708 12.6695 14.5657C13.0394 14.5519 13.1426 14.1456 13.1426 14.1456C13.1426 14.1456 14.8681 7.20165 14.9257 6.27114C14.9279 6.23481 14.9305 6.20374 14.9328 6.17554C14.9363 6.133 14.9392 6.09698 14.9397 6.05927C14.9408 5.97232 14.9327 5.88495 14.9186 5.84385C14.8797 5.73097 14.8336 5.70003 14.7614 5.67266C14.6034 5.61283 14.336 5.70283 14.336 5.70283C14.336 5.70283 4.86803 9.10597 4.32718 9.48284C4.21066 9.56411 4.17176 9.61114 4.15244 9.66648C4.05888 9.93487 4.35015 10.0531 4.35015 10.0531L6.79041 10.8483L6.78973 10.8482C6.78973 10.8482 6.79883 10.8495 6.8123 10.8507L7.95549 14.0148C7.95549 14.0148 8.06234 14.2361 8.19183 14.303C8.27463 14.3579 8.43882 14.3154 8.76053 13.9937C9.28287 13.4713 9.78945 13.0331 10.0433 12.8197Z" fill="#BDBDBD"/>
</svg>
