<svg width="20" height="20" viewBox="0 0 20 20" fill="none" xmlns="http://www.w3.org/2000/svg">
<path d="M10 0C4.4775 0 0 4.4775 0 10C0 15.5225 4.4775 20 10 20C15.5225 20 20 15.5225 20 10C20 4.4775 15.5225 0 10 0ZM15.055 8.0375C15.2075 11.4042 12.6967 15.1575 8.25167 15.1575C6.9 15.1575 5.6425 14.7608 4.58333 14.0817C5.85333 14.2317 7.12083 13.8783 8.12667 13.0908C7.08 13.0717 6.19583 12.3792 5.89 11.4283C6.26583 11.5 6.63583 11.4792 6.97167 11.3875C5.82083 11.1558 5.02583 10.1192 5.05167 9.01C5.375 9.18917 5.74333 9.29667 6.13583 9.30917C5.07 8.59667 4.76833 7.18917 5.395 6.11333C6.575 7.56167 8.33917 8.51417 10.3283 8.61417C9.97917 7.1175 11.115 5.675 12.6608 5.675C13.3483 5.675 13.9708 5.96583 14.4075 6.43083C14.9525 6.32417 15.4658 6.12417 15.9275 5.85C15.7483 6.40917 15.3692 6.8775 14.875 7.17417C15.3592 7.11583 15.8208 6.9875 16.2492 6.79667C15.9292 7.27833 15.5242 7.7 15.055 8.0375Z" fill="#BDBDBD"/>
</svg>
