<svg width="621" height="166" viewBox="0 0 621 166" fill="none" xmlns="http://www.w3.org/2000/svg">
<path fill-rule="evenodd" clip-rule="evenodd" d="M83.6637 0C37.4577 0 0 37.1108 0 82.8891C0 128.667 37.4577 165.778 83.6637 165.778C129.87 165.778 167.327 128.667 167.327 82.8891C167.327 37.1108 129.87 0 83.6637 0ZM41.0717 125.088C17.5448 101.783 17.5448 63.9952 41.0717 40.6872C59.0832 22.843 85.6612 18.6614 107.688 28.1426L96.1942 39.5281C80.8185 35.1859 63.5895 39.0084 51.4812 51.0026C35.4808 66.8569 33.8849 91.577 46.6934 109.199L63.7886 92.2676L74.1981 102.583L46.5904 129.932C44.6753 128.448 42.8323 126.835 41.0717 125.088ZM83.6637 93.2045L73.2542 82.8891L83.6637 72.5737L94.0767 82.8891L83.6637 93.2045ZM103.542 92.2676L113.955 102.583L103.542 112.898L93.1294 102.583L103.542 92.2676ZM63.7886 73.5105L53.3757 63.1951L63.7886 52.8797L74.1981 63.1951L63.7886 73.5105ZM126.259 125.088C108.248 142.932 81.6697 147.113 59.6426 137.636L71.1367 126.247C86.5124 130.592 103.741 126.766 115.846 114.772C131.85 98.9178 133.446 74.1977 120.634 56.5757L103.542 73.5105L93.1294 63.1951L120.737 35.8423C122.652 37.3262 124.499 38.9435 126.259 40.6872C149.783 63.9952 149.783 101.783 126.259 125.088Z" fill="white"/>
<path d="M202.47 48.8475H236.102C243.891 48.8475 250.801 50.3039 256.829 53.2166C262.858 56.1293 267.532 60.2613 270.851 65.6125C274.17 70.9638 275.83 77.2295 275.83 84.4096C275.83 91.5898 274.17 97.8555 270.851 103.207C267.532 108.558 262.858 112.69 256.829 115.603C250.801 118.515 243.891 119.972 236.102 119.972H202.47V48.8475ZM235.289 103.918C241.385 103.918 246.262 102.191 249.92 98.736C253.646 95.2814 255.508 90.506 255.508 84.4096C255.508 78.3132 253.646 73.5378 249.92 70.0832C246.262 66.6286 241.385 64.9013 235.289 64.9013H222.588V103.918H235.289Z" fill="white"/>
<path d="M336.872 119.972L322.14 97.9232L307.61 119.972H284.647L310.557 84.0032L285.765 48.8475H308.423L322.648 69.3719L336.669 48.8475H358.413L333.621 83.1903L360.039 119.972H336.872Z" fill="white"/>
<path d="M378.562 48.8475H408.536C416.054 48.8475 422.727 50.3377 428.552 53.3182C434.377 56.2986 438.882 60.4983 442.066 65.9173C445.317 71.2686 446.943 77.4327 446.943 84.4096C446.943 91.3866 445.317 97.5845 442.066 103.003C438.882 108.355 434.377 112.521 428.552 115.501C422.727 118.481 416.054 119.972 408.536 119.972H378.562V48.8475ZM407.926 111.132C413.684 111.132 418.73 110.014 423.065 107.779C427.468 105.544 430.855 102.428 433.226 98.4312C435.597 94.367 436.782 89.6931 436.782 84.4096C436.782 79.1261 435.597 74.4861 433.226 70.4896C430.855 66.4254 427.468 63.2756 423.065 61.0402C418.73 58.8049 413.684 57.6872 407.926 57.6872H388.722V111.132H407.926Z" fill="white"/>
<path d="M514.958 102.191H477.161L469.337 119.972H458.872L491.081 48.8475H501.14L533.451 119.972H522.782L514.958 102.191ZM511.402 94.0622L496.06 59.2113L480.717 94.0622H511.402Z" fill="white"/>
<path d="M583.304 120.785C576.124 120.785 569.655 119.227 563.897 116.111C558.14 112.927 553.601 108.558 550.282 103.003C547.031 97.449 545.405 91.2511 545.405 84.4096C545.405 77.5681 547.031 71.3702 550.282 65.8157C553.601 60.2613 558.14 55.9261 563.897 52.8102C569.655 49.6265 576.124 48.0347 583.304 48.0347C590.417 48.0347 596.852 49.6265 602.609 52.8102C608.367 55.9261 612.872 60.2613 616.123 65.8157C619.374 71.3024 621 77.5004 621 84.4096C621 91.3188 619.374 97.5506 616.123 103.105C612.872 108.592 608.367 112.927 602.609 116.111C596.852 119.227 590.417 120.785 583.304 120.785ZM583.304 111.742C588.52 111.742 593.194 110.556 597.326 108.185C601.526 105.815 604.811 102.563 607.182 98.4312C609.62 94.2315 610.839 89.5576 610.839 84.4096C610.839 79.2616 609.62 74.6216 607.182 70.4896C604.811 66.2899 601.526 63.0046 597.326 60.6338C593.194 58.263 588.52 57.0776 583.304 57.0776C578.088 57.0776 573.347 58.263 569.079 60.6338C564.88 63.0046 561.561 66.2899 559.122 70.4896C556.751 74.6216 555.566 79.2616 555.566 84.4096C555.566 89.5576 556.751 94.2315 559.122 98.4312C561.561 102.563 564.88 105.815 569.079 108.185C573.347 110.556 578.088 111.742 583.304 111.742Z" fill="white"/>
</svg>
